# 3ds Max Wavefront OBJ Exporter v0.97b - (c)2007 guruware
# File Created: 30.06.2012 22:02:06

#
# object Box001
#

v  -1.0000 2.0000 1.0000
v  1.0000 2.0000 1.0000
v  1.0000 2.0000 -1.0000
v  -1.0000 2.0000 -1.0000
v  -1.0000 -0.0000 1.0000
v  1.0000 -0.0000 1.0000
v  1.0000 -0.0000 -1.0000
v  -1.0000 -0.0000 -1.0000
# 8 vertices

vn 0.0000 1.0000 -0.0000
vn 0.0000 0.0000 1.0000
vn 1.0000 0.0000 -0.0000
vn 0.0000 0.0000 -1.0000
vn -1.0000 0.0000 -0.0000
# 5 vertex normals

vt 0.0000 0.0000 0.0000
vt 1.0000 0.0000 0.0000
vt 1.0000 1.0000 0.0000
vt 0.0000 1.0000 0.0000
# 4 texture coords

g Box001
f 1/1/1 2/2/1 3/3/1 
f 3/3/1 4/4/1 1/1/1 
f 5/1/2 6/2/2 2/3/2 
f 2/3/2 1/4/2 5/1/2 
f 6/1/3 7/2/3 3/3/3 
f 3/3/3 2/4/3 6/1/3 
f 7/1/4 8/2/4 4/3/4 
f 4/3/4 3/4/4 7/1/4 
f 8/1/5 5/2/5 1/3/5 
f 1/3/5 4/4/5 8/1/5 
# 10 faces

