# 3ds Max Wavefront OBJ Exporter v0.97b - (c)2007 guruware
# File Created: 19.07.2012 17:46:13

#
# object Box003
#

v  11.2090 0.0250 -11.7292
v  12.1193 0.0250 -7.7502
v  4.0482 0.0250 -7.7502
v  4.0482 0.0250 -15.3819
v  -4.0229 0.0250 -7.7502
v  -4.0229 0.0250 -15.3819
v  -12.0939 0.0250 -7.7502
v  -11.1836 0.0250 -11.7292
v  12.4468 0.0250 -0.1186
v  4.0482 0.0250 -0.1186
v  -4.0229 0.0250 -0.1186
v  -12.4215 0.0250 -0.1186
v  12.1193 0.0250 7.5131
v  4.0482 0.0250 7.5131
v  -4.0228 0.0250 7.5131
v  -12.0939 0.0250 7.5131
v  10.6659 0.0250 13.1888
v  4.0482 0.0250 15.1447
v  -4.0228 0.0250 15.1447
v  -11.0250 0.0250 13.1888
v  11.2090 6.1608 -11.7295
v  4.0482 6.1608 -15.3823
v  4.0482 6.1608 -7.7506
v  12.1193 6.1608 -7.7506
v  -4.0228 6.1608 -15.3823
v  -4.0228 6.1608 -7.7506
v  -11.1836 6.1608 -11.7295
v  -12.0939 6.1608 -7.7506
v  4.0482 6.1608 -0.1190
v  12.4468 6.1608 -0.1190
v  -4.0229 6.1608 -0.1186
v  -12.4215 6.1608 -0.1186
v  4.0482 6.1608 7.5127
v  12.1193 6.1608 7.5127
v  -4.0228 6.1608 7.5127
v  -12.0939 6.1608 7.5131
v  4.0482 6.1608 15.1443
v  10.6659 6.1608 13.1884
v  -4.0228 6.1608 15.1443
v  -11.0250 6.1608 13.1888
# 40 vertices

vn 0.0000 -1.0000 -0.0000
vn 0.0000 1.0000 -0.0000
vn -0.0000 1.0000 -0.0000
vn 0.0000 1.0000 0.0000
vn 0.6312 -0.0000 -0.7756
vn 0.3350 -0.0000 -0.9422
vn -0.3350 -0.0000 -0.9422
vn -0.6312 -0.0000 -0.7756
vn -0.9899 -0.0000 -0.1419
vn -0.9964 -0.0000 -0.0846
vn -1.0000 0.0000 0.0000
vn -1.0000 -0.0000 0.0000
vn -0.9974 0.0000 0.0721
vn -0.9931 0.0000 0.1172
vn -0.4071 0.0000 0.9134
vn -0.2081 0.0000 0.9781
vn -0.4070 0.0000 0.9134
vn 0.2185 0.0000 0.9758
vn 0.4265 0.0000 0.9045
vn 0.9874 0.0000 0.1585
vn 0.9957 0.0000 0.0929
vn 1.0000 -0.0000 0.0000
vn 1.0000 -0.0000 -0.0000
vn 0.9964 -0.0000 -0.0846
vn 0.9899 -0.0000 -0.1419
# 25 vertex normals

vt 1.0000 0.0000 0.0000
vt 1.0000 0.2500 0.0000
vt 0.6667 0.2500 0.0000
vt 0.6667 0.0000 0.0000
vt 0.3333 0.2500 0.0000
vt 0.3333 0.0000 0.0000
vt -0.0000 0.2500 0.0000
vt -0.0000 0.0000 0.0000
vt 1.0000 0.5000 0.0000
vt 0.6667 0.5000 0.0000
vt 0.3333 0.5000 0.0000
vt -0.0000 0.5000 0.0000
vt 1.0000 0.7500 0.0000
vt 0.6667 0.7500 0.0000
vt 0.3333 0.7500 0.0000
vt -0.0000 0.7500 0.0000
vt 1.0000 1.0000 0.0000
vt 0.6667 1.0000 0.0000
vt 0.3333 1.0000 0.0000
vt -0.0000 1.0000 0.0000
vt 0.0000 0.0000 0.0000
vt 0.0000 0.2500 0.0000
vt 0.0000 0.5000 0.0000
vt 0.0000 0.7500 0.0000
vt 0.0000 1.0000 0.0000
vt 0.2500 0.0000 0.0000
vt 0.2500 1.0000 0.0000
vt 0.5000 0.0000 0.0000
vt 0.5000 1.0000 0.0000
vt 0.7500 0.0000 0.0000
vt 0.7500 1.0000 0.0000
# 31 texture coords

g Box003
f 1/1/1 2/2/1 3/3/1 
f 3/3/1 4/4/1 1/1/1 
f 4/4/1 3/3/1 5/5/1 
f 5/5/1 6/6/1 4/4/1 
f 6/6/1 5/5/1 7/7/1 
f 7/7/1 8/8/1 6/6/1 
f 2/2/1 9/9/1 10/10/1 
f 10/10/1 3/3/1 2/2/1 
f 3/3/1 10/10/1 11/11/1 
f 11/11/1 5/5/1 3/3/1 
f 5/5/1 11/11/1 12/12/1 
f 12/12/1 7/7/1 5/5/1 
f 9/9/1 13/13/1 14/14/1 
f 14/14/1 10/10/1 9/9/1 
f 10/10/1 14/14/1 15/15/1 
f 15/15/1 11/11/1 10/10/1 
f 11/11/1 15/15/1 16/16/1 
f 16/16/1 12/12/1 11/11/1 
f 13/13/1 17/17/1 18/18/1 
f 18/18/1 14/14/1 13/13/1 
f 14/14/1 18/18/1 19/19/1 
f 19/19/1 15/15/1 14/14/1 
f 15/15/1 19/19/1 20/20/1 
f 20/20/1 16/16/1 15/15/1 
f 21/21/2 22/6/2 23/5/2 
f 23/5/2 24/22/2 21/21/2 
f 22/6/2 25/4/2 26/3/3 
f 26/3/3 23/5/2 22/6/2 
f 25/4/2 27/1/2 28/2/3 
f 28/2/3 26/3/3 25/4/2 
f 24/22/2 23/5/2 29/11/4 
f 29/11/4 30/23/2 24/22/2 
f 23/5/2 26/3/3 31/10/4 
f 31/10/4 29/11/4 23/5/2 
f 26/3/3 28/2/3 32/9/3 
f 32/9/3 31/10/4 26/3/3 
f 30/23/2 29/11/4 33/15/4 
f 33/15/4 34/24/4 30/23/2 
f 29/11/4 31/10/4 35/14/4 
f 35/14/4 33/15/4 29/11/4 
f 31/10/4 32/9/3 36/13/4 
f 36/13/4 35/14/4 31/10/4 
f 34/24/4 33/15/4 37/19/4 
f 37/19/4 38/25/4 34/24/4 
f 33/15/4 35/14/4 39/18/4 
f 39/18/4 37/19/4 33/15/4 
f 35/14/4 36/13/4 40/17/4 
f 40/17/4 39/18/4 35/14/4 
f 1/21/5 4/6/6 22/19/6 
f 22/19/6 21/25/5 1/21/5 
f 4/6/6 6/4/7 25/18/7 
f 25/18/7 22/19/6 4/6/6 
f 6/4/7 8/1/8 27/17/8 
f 27/17/8 25/18/7 6/4/7 
f 8/21/9 7/26/10 28/27/10 
f 28/27/10 27/25/9 8/21/9 
f 7/26/10 12/28/11 32/29/12 
f 32/29/12 28/27/10 7/26/10 
f 12/28/11 16/30/13 36/31/13 
f 36/31/13 32/29/12 12/28/11 
f 16/30/13 20/1/14 40/17/14 
f 40/17/14 36/31/13 16/30/13 
f 20/21/15 19/6/16 39/19/16 
f 39/19/16 40/25/17 20/21/15 
f 19/6/16 18/4/18 37/18/18 
f 37/18/18 39/19/16 19/6/16 
f 18/4/18 17/1/19 38/17/19 
f 38/17/19 37/18/18 18/4/18 
f 17/21/20 13/26/21 34/27/21 
f 34/27/21 38/25/20 17/21/20 
f 13/26/21 9/28/22 30/29/23 
f 30/29/23 34/27/21 13/26/21 
f 9/28/22 2/30/24 24/31/24 
f 24/31/24 30/29/23 9/28/22 
f 2/30/24 1/1/25 21/17/25 
f 21/17/25 24/31/24 2/30/24 
# 76 faces

